<svg width="20" height="20" viewBox="0 0 20 20" fill="none" xmlns="http://www.w3.org/2000/svg">
<path d="M7.49999 1.6665H12.5C12.9602 1.6665 13.3333 2.0396 13.3333 2.49984V4.1665C13.3333 4.62674 12.9602 4.99984 12.5 4.99984H7.49999C7.03975 4.99984 6.66666 4.62674 6.66666 4.1665V2.49984C6.66666 2.0396 7.03975 1.6665 7.49999 1.6665V1.6665" stroke="#6B7280" stroke-width="1.66667" stroke-linecap="round" stroke-linejoin="round"/>
<path d="M13.3333 3.33301H15C15.9205 3.33301 16.6667 4.0792 16.6667 4.99967V16.6663C16.6667 17.5868 15.9205 18.333 15 18.333H5.00001C4.07954 18.333 3.33334 17.5868 3.33334 16.6663V4.99967C3.33334 4.0792 4.07954 3.33301 5.00001 3.33301H6.66668M10 9.16634H13.3333M10 13.333H13.3333M6.66668 9.16634H6.67501M6.66668 13.333H6.67501" stroke="#6B7280" stroke-width="1.66667" stroke-linecap="round" stroke-linejoin="round"/>
</svg>
