<svg width="20" height="20" viewBox="0 0 20 20" fill="none" xmlns="http://www.w3.org/2000/svg">
<path opacity="0.965" fill-rule="evenodd" clip-rule="evenodd" d="M9.51172 1.62094C12.8777 1.58139 15.4493 2.97462 17.2266 5.80062C18.7109 8.58707 18.7109 11.3736 17.2266 14.16C15.6779 16.6819 13.4188 18.0686 10.4492 18.3202C8.06641 18.3462 5.68359 18.3462 3.30078 18.3202C2.35642 18.157 1.80303 17.6037 1.64063 16.66C1.61458 14.2772 1.61458 11.8944 1.64063 9.51156C1.97929 5.97121 3.78267 3.51677 7.05078 2.14828C7.85356 1.8641 8.67387 1.68832 9.51172 1.62094ZM9.55078 2.91C12.4361 2.87103 14.6301 4.06894 16.1328 6.50375C17.3568 8.82144 17.3568 11.1392 16.1328 13.4569C14.8221 15.6137 12.9015 16.8051 10.3711 17.0311C8.01207 17.0697 5.65531 17.0567 3.30078 16.992C3.09227 16.9136 2.96858 16.7639 2.92969 16.5428C2.90365 14.2121 2.90365 11.8814 2.92969 9.55062C3.16716 7.03613 4.35856 5.12859 6.50391 3.82797C7.45891 3.30332 8.47453 2.99733 9.55078 2.91Z" fill="#6B7280"/>
<path opacity="0.964" fill-rule="evenodd" clip-rule="evenodd" d="M6.50391 7.44141C8.82164 7.43489 11.1394 7.44141 13.457 7.46094C13.9516 7.66833 14.0753 8.01336 13.8281 8.4961C13.7461 8.612 13.6354 8.6836 13.4961 8.71094C11.1523 8.737 8.80859 8.737 6.46484 8.71094C6.16746 8.61188 6.01121 8.40356 5.99609 8.08594C6.01605 7.74758 6.18531 7.53274 6.50391 7.44141Z" fill="#6B7280"/>
<path opacity="0.961" fill-rule="evenodd" clip-rule="evenodd" d="M6.46484 11.2305C7.84511 11.224 9.22531 11.2305 10.6055 11.25C10.9657 11.4172 11.1025 11.6971 11.0156 12.0898C10.9232 12.3126 10.7605 12.4493 10.5273 12.5C9.18621 12.5261 7.84503 12.5261 6.5039 12.5C6.00937 12.2926 5.88566 11.9476 6.13281 11.4648C6.22351 11.3518 6.33417 11.2736 6.46484 11.2305Z" fill="#6B7280"/>
</svg>
