<svg width="20" height="20" viewBox="0 0 20 20" fill="none" xmlns="http://www.w3.org/2000/svg">
<path d="M13 8.5C13 9.32787 12.3279 10 11.5 10H6.121C5.72321 10.0001 5.34174 10.1582 5.0605 10.4395L3.409 12.091C3.25671 12.2433 3.02769 12.2888 2.82873 12.2064C2.62977 12.124 2.50003 11.9299 2.5 11.7145V4C2.5 3.17213 3.17213 2.5 4 2.5H11.5C12.3279 2.5 13 3.17213 13 4V8.5M16 7.75C16.8279 7.75 17.5 8.42213 17.5 9.25V16.9645C17.5 17.1799 17.3702 17.374 17.1713 17.4564C16.9723 17.5388 16.7433 17.4933 16.591 17.341L14.9395 15.6895C14.6583 15.4082 14.2768 15.2501 13.879 15.25H8.5C7.67213 15.25 7 14.5779 7 13.75V13" stroke="white" stroke-width="1.5" stroke-linecap="round" stroke-linejoin="round"/>
</svg>
